:SAMPLES-PER-SECOND 30
:FULLY-SPECIFIED
:DEGREES
309
root  21.6426 33.1473 -11.4141 13.6583 -57.7376 -3.78154
RightUpLeg  -8.03488 -17.6651 6.87054
RightLeg  15.1567 0.268605 0.0550162
RightFoot  -5.14866 -0.0204523 -0.0773517
RightToes  -36.0577 -0.187781 -0.291787
Spine  5.49063 2.33008 0.44007
Spine1  10.7598 5.10827 0.113157
HEad  -11.4011 -31.4233 28.2445
LeftShoulder1  0 -2.42657e-020 -4.95415e-022
LeftArm  -8.51564 22.6962 -63.6566
LeftForeArm  44.0567 -55.7259 -15.028
LeftHand  -0.142294 -10.0542 1.24842
RightShoulder  0 2.42657e-020 1.07489e-018
RightArm  -26.4669 -11.2577 66.8178
RightForeArm  46.1486 28.8286 5.54609
RightHand  -4.04621 17.8743 -24.9584
LeftUpLeg  -30.4189 15.1538 -5.60544
LeftLeg  31.8073 4.31686 2.30007
LeftFoot  -6.46957 -0.032824 -0.580778
LeftToes  -11.4255 1.33192e-006 1.13262e-007
310
root  20.6821 33.1316 -11.3842 11.8021 -53.6143 -1.52019
RightUpLeg  -10.4837 -20.7054 6.9912
RightLeg  22.3899 -1.85591 -0.630791
RightFoot  -6.67102 -0.00949603 0.214638
RightToes  -37.6794 -0.200215 -0.301641
Spine  5.68235 1.76655 -0.614818
Spine1  11.2313 3.82192 -1.56054
HEad  -16.0808 -32.7546 33.8635
LeftShoulder1  0 -2.42657e-020 -4.95415e-022
LeftArm  -4.69045 19.3845 -56.9052
LeftForeArm  42.185 -56.0011 -15.192
LeftHand  -0.0335004 -10.1364 0.00778571
RightShoulder  0 2.42657e-020 1.07489e-018
RightArm  -19.482 -18.9789 68.6725
RightForeArm  52.4076 42.8457 9.39203
RightHand  -5.8787 18.1122 -35.3539
LeftUpLeg  -29.5877 10.6733 -6.19729
LeftLeg  30.8278 5.8054 2.9651
LeftFoot  -7.80836 -0.0619997 -0.908458
LeftToes  -8.41181 1.33192e-006 1.13262e-007
311
root  19.8809 32.8076 -11.3357 9.77556 -48.7757 0.172531
RightUpLeg  -18.5094 -23.18 6.75101
RightLeg  40.5365 -3.27148 -2.47217
RightFoot  -5.96543 0.00302568 0.435668
RightToes  -41.5984 -0.231376 -0.323972
Spine  6.71644 0.985362 -0.946768
Spine1  13.231 2.24712 -2.0722
HEad  -21.4543 -33.7455 37.3011
LeftShoulder1  0 -2.42657e-020 -4.95415e-022
LeftArm  -4.06867 9.33823 -56.3074
LeftForeArm  37.7483 -49.678 -12.007
LeftHand  0.129904 -10.1988 -1.82683
RightShoulder  0 2.42657e-020 1.07489e-018
RightArm  -14.8207 -19.558 70.4776
RightForeArm  54.6006 49.3383 11.836
RightHand  -6.10036 16.3137 -40.4311
LeftUpLeg  -28.7302 3.28443 -5.4856
LeftLeg  32.8236 6.91145 3.83428
LeftFoot  -11.8637 -0.169769 -1.63383
LeftToes  -5.51051 1.33192e-006 1.13262e-007
312
root  19.2708 32.1334 -11.5448 10.9388 -44.9055 -1.01485
RightUpLeg  -27.9015 -19.4544 7.5957
RightLeg  54.0586 -0.839417 -1.0738
RightFoot  -7.88942 -0.0117022 0.207864
RightToes  -43.9382 -0.250683 -0.336271
Spine  7.21198 0.0227008 -0.572937
Spine1  13.9198 0.229955 -1.2254
HEad  -24.4914 -33.6753 37.7891
LeftShoulder1  0 -2.42657e-020 -4.95415e-022
LeftArm  -5.41806 -2.08011 -60.021
LeftForeArm  38.052 -39.7773 -8.4349
LeftHand  0.0942059 -10.7493 -1.37212
RightShoulder  0 2.42657e-020 1.07489e-018
RightArm  -14.7444 -12.9496 72.4399
RightForeArm  63.1298 46.2795 10.5831
RightHand  -7.49233 18.2773 -43.9387
LeftUpLeg  -32.1694 -1.15351 -3.25749
LeftLeg  39.6199 5.20853 3.75977
LeftFoot  -16.8987 -0.27524 -1.85273
LeftToes  -5.92797 1.33192e-006 1.13262e-007
313
root  18.7954 31.2599 -11.8123 12.0673 -43.2604 -1.53755
RightUpLeg  -37.7412 -8.73545 4.30439
RightLeg  61.9177 -1.21497 -2.06008
RightFoot  -11.0524 0.00764204 0.456565
RightToes  -40.8937 -0.225662 -0.320115
Spine  8.34086 -0.957969 -0.447956
Spine1  15.2666 -2.07816 -0.465545
HEad  -28.5175 -31.323 37.5548
LeftShoulder1  0 -2.42657e-020 -4.95415e-022
LeftArm  -8.95188 -13.6056 -64.7639
LeftForeArm  37.5565 -31.0004 -6.06822
LeftHand  0.0539833 -10.2636 -0.971699
RightShoulder  0 2.42657e-020 1.07489e-018
RightArm  -14.2512 -0.463702 72.3313
RightForeArm  69.5009 43.8056 9.66975
RightHand  -8.3269 18.1826 -48.5676
LeftUpLeg  -36.8906 -2.40254 -1.8217
LeftLeg  47.2777 3.79992 3.60389
LeftFoot  -19.9693 -0.309165 -1.75599
LeftToes  -7.61088 1.33192e-006 1.13262e-007
314
root  18.2326 30.3257 -11.9404 14.1367 -42.4326 -1.56668
RightUpLeg  -47.9241 1.38633 -3.62865
RightLeg  64.5425 -3.40288 -6.1907
RightFoot  -11.079 0.0921199 1.32745
RightToes  -33.1888 -0.166485 -0.273507
Spine  9.36762 -1.82172 -0.3447
Spine1  16.0872 -4.20809 0.0642037
HEad  -31.4712 -29.3338 37.1794
LeftShoulder1  0 -2.42657e-020 -4.95415e-022
LeftArm  -11.8277 -22.0079 -68.2067
LeftForeArm  32.9729 -31.7663 -6.25914
LeftHand  -0.00517614 -9.22122 -0.305999
RightShoulder  0 2.42657e-020 1.07489e-018
RightArm  -16.1334 13.5777 68.5909
RightForeArm  77.4422 47.6344 11.0568
RightHand  -9.28609 18.1487 -53.5524
LeftUpLeg  -42.1569 -2.45089 -0.85969
LeftLeg  54.0819 2.45211 2.95203
LeftFoot  -21.724 -0.280055 -1.45945
LeftToes  -9.27726 1.33192e-006 1.13262e-007
315
root  17.3655 29.4696 -11.7488 13.8906 -41.6044 -1.13777
RightUpLeg  -53.6295 8.36842 -13.9108
RightLeg  63.0073 -4.60245 -7.80428
RightFoot  -6.62917 0.0309784 0.912535
RightToes  -30.6434 -0.148377 -0.256413
Spine  10.4413 -2.56335 -0.128214
Spine1  17.3067 -6.35053 0.874135
HEad  -34.1288 -28.0209 36.2906
LeftShoulder1  0 -2.42657e-020 -4.95415e-022
LeftArm  -13.043 -29.9497 -71.0423
LeftForeArm  29.6503 -34.085 -6.84709
LeftHand  -0.06644 -8.16101 0.561831
RightShoulder  0 2.42657e-020 1.07489e-018
RightArm  -22.5983 28.2401 58.4424
RightForeArm  80.3366 55.0071 14.5036
RightHand  -9.2157 17.5086 -54.9004
LeftUpLeg  -44.352 -2.66887 -0.265655
LeftLeg  60.0676 1.85525 2.77765
LeftFoot  -22.1785 -0.28726 -1.46556
LeftToes  -8.04114 1.33192e-006 1.13262e-007
316
root  16.1383 28.6795 -11.2609 11.927 -40.0197 -0.416046
RightUpLeg  -54.4332 12.4894 -22.3781
RightLeg  60.723 -3.21808 -5.03754
RightFoot  -2.08045 -0.0079702 -0.06142
RightToes  -36.0419 -0.187661 -0.291689
Spine  10.4894 -2.94474 0.0624858
Spine1  17.3224 -7.41544 1.03281
HEad  -34.6225 -29.2976 34.9546
LeftShoulder1  0 -2.42657e-020 -4.95415e-022
LeftArm  -12.3779 -35.1328 -73.056
LeftForeArm  27.8364 -39.9736 -8.50205
LeftHand  -0.157195 -7.86524 1.91807
RightShoulder  0 2.42657e-020 1.07489e-018
RightArm  -38.0915 39.3274 39.5177
RightForeArm  77.6178 61.0637 18.5582
RightHand  -8.56661 17.2623 -52.1721
LeftUpLeg  -43.5235 -3.49083 0.277813
LeftLeg  65.0194 1.44574 2.62991
LeftFoot  -24.7668 -0.345506 -1.57354
LeftToes  -11.4001 1.33192e-006 1.13262e-007
317
root  14.3852 28.0641 -10.5558 8.36331 -36.3143 -0.157745
RightUpLeg  -47.7276 12.5027 -23.7055
RightLeg  59.0372 -0.567885 -0.904316
RightFoot  0.342958 0.00221183 -0.360736
RightToes  -59.0369 -0.385477 -0.395661
Spine  9.94694 -3.35514 0.136441
Spine1  16.8021 -7.7865 0.359579
HEad  -33.6024 -31.1252 34.0702
LeftShoulder1  0 -2.42657e-020 -4.95415e-022
LeftArm  -10.0795 -38.2669 -71.4609
LeftForeArm  27.7404 -50.7001 -12.4664
LeftHand  -0.187332 -7.48996 2.49374
RightShoulder  0 2.42657e-020 1.07489e-018
RightArm  -61.2337 42.3959 13.2473
RightForeArm  76.4313 64.7008 21.9037
RightHand  -8.28502 17.5492 -49.92
LeftUpLeg  -39.079 -4.83757 1.75031
LeftLeg  68.1042 0.488291 1.00549
LeftFoot  -27.916 -0.198677 -0.799346
LeftToes  -15.8277 1.33192e-006 1.13262e-007
318
root  12.2282 27.9477 -9.78793 5.43869 -31.229 -0.384033
RightUpLeg  -37.5507 8.52738 -19.3135
RightLeg  58.2679 -0.269032 -0.457102
RightFoot  -11.2721 -0.0546646 -0.176382
RightToes  -57.0389 -0.366806 -0.389871
Spine  8.73938 -4.19947 -0.423831
Spine1  15.0611 -8.97921 -0.809597
HEad  -32.5813 -33.1424 33.9035
LeftShoulder1  0 -2.42657e-020 -4.95415e-022
LeftArm  -11.4246 -41.0037 -64.851
LeftForeArm  37.612 -63.4878 -20.7993
LeftHand  -0.132761 -8.86145 1.34434
RightShoulder  0 2.42657e-020 1.07489e-018
RightArm  -83.0766 39.6793 -10.3952
RightForeArm  73.248 65.7243 23.0466
RightHand  -7.10841 19.015 -40.3389
LeftUpLeg  -33.3068 -5.55905 4.54064
LeftLeg  67.7316 -1.13702 -2.34924
LeftFoot  -28.8855 0.284394 1.10418
LeftToes  -22.9807 1.33192e-006 1.13262e-007
319
root  10.0549 29.1147 -8.97969 4.25677 -26.9374 -0.995071
RightUpLeg  -28.7325 2.50963 -14.809
RightLeg  53.8592 1.26448 1.45643
RightFoot  -11.7687 -0.106004 -0.650984
RightToes  -58.61 -0.381471 -0.394478
Spine  6.96609 -5.13918 -1.21175
Spine1  12.1961 -11.0886 -1.51925
HEad  -30.2932 -34.7816 32.3253
LeftShoulder1  0 -2.42657e-020 -4.95415e-022
LeftArm  -15.8365 -43.1011 -58.7075
LeftForeArm  48.711 -72.0867 -33.3139
LeftHand  -0.109238 -8.6417 1.07661
RightShoulder  0 2.42657e-020 1.07489e-018
RightArm  -99.7327 37.9676 -29.2881
RightForeArm  69.4988 59.6229 17.4955
RightHand  -6.04539 19.2072 -34.3051
LeftUpLeg  -25.3727 -5.57889 7.93531
LeftLeg  58.91 -3.72333 -5.35354
LeftFoot  -25.0954 0.601219 2.70079
LeftToes  -30.505 1.33192e-006 1.13262e-007
320
root  7.95452 31.6074 -7.8926 3.41292 -22.3716 -1.42477
RightUpLeg  -16.1821 -6.27801 -11.5279
RightLeg  40.0924 5.36458 3.92275
RightFoot  -2.90683 -0.0246965 -0.595934
RightToes  -62.8509 -0.421626 -0.404889
Spine  5.16484 -5.77732 -1.87354
Spine1  9.33251 -12.4709 -2.61859
HEad  -27.3381 -37.171 30.7529
LeftShoulder1  0 -2.42657e-020 -4.95415e-022
LeftArm  -17.4162 -43.8861 -60.0065
LeftForeArm  58.3488 -75.8333 -44.7673
LeftHand  -0.0333899 -8.99407 0.0546246
RightShoulder  0 2.42657e-020 1.07489e-018
RightArm  -111.558 36.3164 -42.0033
RightForeArm  67.1355 52.972 13.482
RightHand  -5.32213 20.0413 -29.1126
LeftUpLeg  -13.3155 -5.15772 10.9596
LeftLeg  39.6034 -9.67249 -6.94505
LeftFoot  -12.9449 0.299671 2.641
LeftToes  -38.814 1.33192e-006 1.13262e-007
321
root  6.17706 34.8541 -6.94346 4.81421 -18.3857 -0.615143
RightUpLeg  -6.52111 -8.23092 -9.62531
RightLeg  22.2515 7.4634 2.49698
RightFoot  18.1791 -0.281592 2.13742
RightToes  -69.0053 -0.481014 -0.414655
Spine  2.81576 -5.33868 -3.0939
Spine1  5.45631 -11.4144 -5.27359
HEad  -24.9141 -39.9325 30.7523
LeftShoulder1  0 -2.42657e-020 -4.95415e-022
LeftArm  -13.4151 -42.5693 -64.9837
LeftForeArm  81.2894 -78.9054 -65.2036
LeftHand  -0.0517122 -9.09702 0.280289
RightShoulder  0 2.42657e-020 1.07489e-018
RightArm  -114.125 30.41 -47.9022
RightForeArm  62.8715 49.6465 11.9447
RightHand  -4.93898 19.6805 -27.5642
LeftUpLeg  -4.99803 -8.82842 11.5555
LeftLeg  18.604 -12.3612 -3.2673
LeftFoot  13.4257 0.375653 -3.19079
LeftToes  -46.843 1.33192e-006 1.13262e-007
322
root  4.77174 38.1602 -6.35122 7.34741 -14.9217 0.25415
RightUpLeg  -2.602 -4.52546 -7.13539
RightLeg  9.00412 3.35191 0.313528
RightFoot  38.8015 -0.50364 1.80755
RightToes  -44.4685 -0.255127 -0.338948
Spine  0.979974 -4.06366 -4.38579
Spine1  2.23268 -8.65219 -8.11231
HEad  -27.0782 -41.6833 33.5739
LeftShoulder1  0 -2.42657e-020 -4.95415e-022
LeftArm  -7.98386 -40.6348 -69.3313
LeftForeArm  106.261 -79.8928 -89.5981
LeftHand  -0.020426 -10.0248 -0.137155
RightShoulder  0 2.42657e-020 1.07489e-018
RightArm  -110.6 21.2711 -51.9953
RightForeArm  65.2154 44.198 9.82009
RightHand  -5.17255 20.078 -28.2663
LeftUpLeg  -4.41443 -4.34159 10.9763
LeftLeg  7.88808 -15.9385 -1.15788
LeftFoot  31.9805 2.56359 -8.92942
LeftToes  -23.708 1.33192e-006 1.13262e-007
323
root  3.62334 40.9549 -5.91996 8.5726 -10.4315 0.954391
RightUpLeg  -1.95882 -5.74244 -5.23183
RightLeg  6.40968 2.81472 0.135391
RightFoot  38.7693 -0.410096 1.54301
RightToes  -41.3328 -0.229217 -0.322527
Spine  0.296418 -3.86082 -5.30125
Spine1  1.07132 -8.11706 -10.1147
HEad  -29.6987 -42.2058 35.2999
LeftShoulder1  0 -2.42657e-020 -4.95415e-022
LeftArm  -8.30101 -35.9807 -69.1936
LeftForeArm  129.491 -79.2171 -110.446
LeftHand  0.00337233 -10.4535 -0.407083
RightShoulder  0 2.42657e-020 1.07489e-018
RightArm  -110.971 17.9247 -55.5139
RightForeArm  65.1594 35.2016 7.08342
RightHand  -5.06007 20.0738 -27.6733
LeftUpLeg  -7.48322 4.22584 9.00858
LeftLeg  8.75899 -23.144 -2.00093
LeftFoot  29.5666 3.2784 -12.3779
LeftToes  -21.4974 1.33192e-006 1.13262e-007
